<svg id="instagram" xmlns="http://www.w3.org/2000/svg" width="44.407" height="44.397" viewBox="0 0 44.407 44.397">
  <path id="Icon_awesome-instagram" data-name="Icon awesome-instagram" d="M22.2,13.053A11.383,11.383,0,1,0,33.586,24.436,11.365,11.365,0,0,0,22.2,13.053Zm0,18.783a7.4,7.4,0,1,1,7.4-7.4,7.414,7.414,0,0,1-7.4,7.4Zm14.5-19.249a2.655,2.655,0,1,1-2.655-2.655A2.649,2.649,0,0,1,36.707,12.588Zm7.539,2.695c-.168-3.557-.981-6.707-3.586-9.3s-5.746-3.408-9.3-3.586c-3.666-.208-14.652-.208-18.318,0-3.547.168-6.7.981-9.3,3.576S.329,11.716.151,15.273c-.208,3.666-.208,14.652,0,18.318.168,3.557.981,6.707,3.586,9.3s5.746,3.408,9.3,3.586c3.666.208,14.652.208,18.318,0,3.557-.168,6.707-.981,9.3-3.586s3.408-5.746,3.586-9.3c.208-3.666.208-14.642,0-18.308ZM39.51,37.523a7.492,7.492,0,0,1-4.22,4.22c-2.922,1.159-9.857.892-13.087.892s-10.174.258-13.087-.892a7.492,7.492,0,0,1-4.22-4.22C3.737,34.6,4,27.666,4,24.436S3.747,14.262,4.9,11.35a7.492,7.492,0,0,1,4.22-4.22c2.922-1.159,9.857-.892,13.087-.892s10.174-.258,13.087.892a7.492,7.492,0,0,1,4.22,4.22c1.159,2.923.892,9.857.892,13.087S40.669,34.611,39.51,37.523Z" transform="translate(0.005 -2.238)" fill="#4a4949"/>
</svg>
