<svg id="twitter" xmlns="http://www.w3.org/2000/svg" width="50.628" height="41.198" viewBox="0 0 50.628 41.198">
  <path id="Icon_ionic-logo-twitter" data-name="Icon ionic-logo-twitter" d="M52.041,9.381a21,21,0,0,1-5.965,1.641,10.423,10.423,0,0,0,4.57-5.75,20.639,20.639,0,0,1-6.6,2.521,10.384,10.384,0,0,0-17.97,7.1,10.169,10.169,0,0,0,.268,2.371A29.436,29.436,0,0,1,4.932,6.4,10.408,10.408,0,0,0,8.161,20.282a10.145,10.145,0,0,1-4.721-1.3v.129A10.4,10.4,0,0,0,11.777,29.3a10.456,10.456,0,0,1-2.736.365,9.8,9.8,0,0,1-1.953-.193A10.4,10.4,0,0,0,16.8,36.7,20.825,20.825,0,0,1,3.892,41.149,21.055,21.055,0,0,1,1.413,41a29.033,29.033,0,0,0,15.9,4.7c19.129,0,29.578-15.846,29.578-29.589,0-.451-.011-.9-.032-1.341A21.144,21.144,0,0,0,52.041,9.381Z" transform="translate(-1.413 -4.5)" fill="#4a4949"/>
</svg>
